<?xml version="1.0" encoding="UTF-8" standalone="no"?>
<!-- Created with Inkscape (http://www.inkscape.org/) -->

<svg
   xmlns:dc="http://purl.org/dc/elements/1.1/"
   xmlns:cc="http://creativecommons.org/ns#"
   xmlns:rdf="http://www.w3.org/1999/02/22-rdf-syntax-ns#"
   xmlns:svg="http://www.w3.org/2000/svg"
   xmlns="http://www.w3.org/2000/svg"
   xmlns:sodipodi="http://sodipodi.sourceforge.net/DTD/sodipodi-0.dtd"
   xmlns:inkscape="http://www.inkscape.org/namespaces/inkscape"
   width="100"
   height="100"
   viewBox="0 0 0 1052.3622"
   id="svg3336"
   version="1.1"
   inkscape:version="0.91 r13725"
   sodipodi:docname="favicon.svg"
   inkscape:export-filename="D:\src\qcodis\test\CoreUI-Angular\Angular5_CLI_Full_Project\src\img\logo.png"
   inkscape:export-xdpi="90"
   inkscape:export-ydpi="90">
  <defs
     id="defs3338">
    <inkscape:path-effect
       effect="bend_path"
       id="path-effect3623"
       is_visible="true"
       bendpath="m 87.125672,387.22342 64.660858,0"
       prop_scale="1"
       scale_y_rel="false"
       vertical="false" />
  </defs>
  <sodipodi:namedview
     id="base"
     pagecolor="#ffffff"
     bordercolor="#666666"
     borderopacity="1.0"
     inkscape:pageopacity="0.0"
     inkscape:pageshadow="2"
     inkscape:zoom="3.959798"
     inkscape:cx="65.593592"
     inkscape:cy="93.280823"
     inkscape:document-units="px"
     inkscape:current-layer="layer1"
     showgrid="false"
     units="px"
     inkscape:window-width="1680"
     inkscape:window-height="987"
     inkscape:window-x="-8"
     inkscape:window-y="-8"
     inkscape:window-maximized="1" />
  <metadata
     id="metadata3341">
    <rdf:RDF>
      <cc:Work
         rdf:about="">
        <dc:format>image/svg+xml</dc:format>
        <dc:type
           rdf:resource="http://purl.org/dc/dcmitype/StillImage" />
        <dc:title></dc:title>
      </cc:Work>
    </rdf:RDF>
  </metadata>
  <g
     inkscape:label="Ebene 1"
     inkscape:groupmode="layer"
     id="layer1"
     transform="translate(0,-952.36216)">
    <flowRoot
       transform="matrix(1.4788284,0,0,1.4788284,36.366042,743.73899)"
       xml:space="preserve"
       id="flowRoot3364"
       style="font-style:normal;font-variant:normal;font-weight:normal;font-stretch:normal;font-size:40px;line-height:125%;font-family:'Papaya Sunrise';-inkscape-font-specification:'Papaya Sunrise';letter-spacing:0px;word-spacing:0px;fill:#000000;fill-opacity:1;stroke:none;stroke-width:1px;stroke-linecap:butt;stroke-linejoin:miter;stroke-opacity:1"><flowRegion
         id="flowRegion3366"><rect
           id="rect3368"
           width="61.619305"
           height="67.680222"
           x="227.28432"
           y="315.961"
           style="font-style:normal;font-variant:normal;font-weight:normal;font-stretch:normal;font-family:'Papaya Sunrise';-inkscape-font-specification:'Papaya Sunrise'" /></flowRegion><flowPara
         id="flowPara3370" /></flowRoot>    <g
       id="g3629"
       transform="matrix(0.65097661,0,0,0.65097661,-169.90905,939.55029)">
      <text
         sodipodi:linespacing="125%"
         id="text3388"
         y="56.519096"
         x="362.42499"
         style="font-style:normal;font-variant:normal;font-weight:normal;font-stretch:normal;font-size:53.20531845px;line-height:125%;font-family:'Papaya Sunrise';-inkscape-font-specification:'Papaya Sunrise';letter-spacing:0px;word-spacing:0px;fill:#000000;fill-opacity:1;stroke:none;stroke-width:1px;stroke-linecap:butt;stroke-linejoin:miter;stroke-opacity:1"
         xml:space="preserve"><tspan
           y="56.519096"
           x="362.42499"
           id="tspan3390"
           sodipodi:role="line" /></text>
      <path
         sodipodi:nodetypes="cccccccccscsascacccccccc"
         style="fill:#536c53"
         id="path3557"
         d="m 380.07774,52.06926 0,-16.360635 0,-0.79808 c -0.66507,-4.655465 -6.51765,-7.847784 -19.0209,-10.242024 -10.50805,-1.995199 -24.34143,-3.192319 -39.10591,-3.192319 l -11.57216,0.266027 c -10.77407,0.39904 -20.75007,1.463146 -28.73087,2.926292 -12.50325,2.39424 -18.35583,5.586559 -19.0209,10.242024 l 0,0.79808 0,122.638255 c 0,0.53206 0.39904,1.59616 0.39904,1.59616 1.9952,5.32053 11.44687,7.6725 19.55295,9.17792 10.51598,1.95297 25.85316,3.05931 38.83989,3.05931 12.98672,0 28.3239,-1.10634 38.83988,-3.05931 8.10607,-1.50542 17.42474,-3.85739 19.41994,-9.0449 0.26603,-0.53206 0.33211,-1.14143 0.39904,-1.72918 0.47663,-4.18503 0,-12.63626 0,-12.63626 17.82378,-4.92149 30.72607,-21.68117 33.25332,-40.83508 3.32534,-24.075408 -9.44394,-47.485748 -33.25332,-52.80628 z m 17.55776,51.07711 c -1.46315,10.64106 -7.71478,24.47444 -17.55776,31.25812 l 0,-73.157312 c 5.58656,2.394239 10.10901,7.847784 12.90229,13.035303 4.65547,8.778877 5.9856,19.020901 4.65547,28.863889 z"
         class="st139"
         inkscape:connector-curvature="0" />
      <path
         style="fill:#a05a2c"
         id="path3559"
         d="m 362.38697,39.166971 c -8.64586,1.995199 -22.34623,3.591359 -41.10111,3.591359 -18.75487,0 -32.45524,-1.729173 -41.1011,-3.591359 -5.18752,-1.19712 -8.51286,-2.39424 -9.976,-3.458346 1.59616,-1.19712 5.71957,-2.527253 12.10421,-3.857386 7.0497,-1.463146 17.0257,-2.660266 29.79498,-3.059306 L 322.616,28.65892 c 16.49365,0.133013 29.12991,1.463146 37.50975,3.192319 6.38463,1.330133 10.37503,2.660266 12.10421,3.857386 -1.46315,1.064106 -4.78848,2.261226 -9.84299,3.458346 z"
         class="st140"
         inkscape:connector-curvature="0" />
      <g
         transform="matrix(1.330133,0,0,1.330133,163.29449,-403.08896)"
         inkscape:path-effect="#path-effect3623"
         id="text3606"
         style="font-style:normal;font-variant:normal;font-weight:normal;font-stretch:normal;font-size:22.16620064px;line-height:125%;font-family:'Papaya Sunrise';-inkscape-font-specification:'Papaya Sunrise';letter-spacing:0px;word-spacing:0px;fill:#a05a2c;fill-opacity:1;stroke:none;stroke-width:1px;stroke-linecap:butt;stroke-linejoin:miter;stroke-opacity:1">
        <path
           style="fill:#a05a2c"
           inkscape:connector-curvature="0"
           inkscape:original-d="m 90.729828,396.63899 q -1.190567,-0.30305 -1.558561,-1.86161 -0.12988,-0.55199 -0.183996,-1.35292 -0.01082,-0.25976 -0.02165,-0.66023 l -0.01082,-0.31387 -0.01082,-0.29223 -0.01082,-0.27059 q 0.497874,0.0217 0.84422,0.10824 0.335524,0.0866 0.779281,0.35717 0.16235,0.0974 0.378817,0.24893 l 0.173173,0.11906 0.173174,0.10823 q 0.671047,0.45458 1.223037,1.32045 0.35717,0.54117 0.833397,1.60186 0.12988,0.27058 0.248937,0.61693 -1.233861,0.68187 -2.857362,0.27058 z M 89.095504,377.4925 q 0.270584,-1.42868 1.266331,-2.42443 1.125627,-1.12562 2.435251,-0.76845 1.569385,0.42211 1.980672,2.47854 0.140703,0.73599 0.16235,1.78585 0.01082,0.34635 0,0.85505 l 0,0.40046 q -0.01082,0.23811 -0.01082,0.37882 0,1.45032 0.01082,4.19945 l 0.01082,2.11055 0,2.09973 q 0,0.53035 0.02165,1.51527 l 0.03247,0.77928 0.01082,0.77928 q 0.02165,1.83997 -0.248937,3.05218 -0.216467,-0.48705 -0.443757,-0.93081 -0.84422,-1.59103 -2.391958,-2.61924 -1.363741,-0.90916 -3.030535,-1.0174 l -0.01082,-1.99149 q -0.01082,-1.21222 -0.03247,-2.00232 l 0.151526,-6.38577 q 0,-0.21647 0,-0.57364 l -0.01082,-0.58446 q 0.01082,-0.69269 0.09741,-1.13645 z m 6.483181,19.47119 q 0.68187,-0.8334 0.930807,-2.04561 0.238114,-1.26633 0.22729,-3.14959 l -0.01082,-0.80093 -0.01082,-0.7901 q -0.03247,-1.0174 -0.03247,-1.56939 l 0,-2.09973 -0.01082,-2.11055 q -0.01082,-2.7816 0,-4.19945 l 0,-0.85505 -0.01082,-0.85504 q -0.03247,-0.98493 -0.151527,-1.72091 -0.313877,-1.89409 -1.407034,-3.04136 -0.974101,-1.0174 -2.391958,-1.21222 -1.407035,-0.18399 -2.630072,0.51952 -1.028217,0.59529 -1.818321,1.92656 -0.757634,1.26633 -0.919984,2.48937 -0.05412,0.47622 -0.06494,1.16892 l 0,0.58446 -0.01082,0.58446 -0.140704,6.38577 0.02165,1.4395 0.01082,1.42869 q 0,1.85079 0.04329,2.879 l 0.01082,0.3247 0,0.33553 q 0.02165,0.40046 0.03247,0.69269 0.04329,0.80093 0.140703,1.40704 0.25976,1.60185 1.060688,2.48936 1.580207,1.78585 4.805563,1.14728 0.443757,-0.0866 0.855044,-0.25976 l 0.248936,0.94163 q 0.151527,0.51952 0.292231,0.91998 0.367993,1.0174 0.865867,1.75338 0.216467,0.3247 0.58446,0.37882 0.3247,0.0541 0.627754,-0.12988 0.313877,-0.17317 0.400463,-0.4654 0.108234,-0.33553 -0.119056,-0.66023 -0.465404,-0.68187 -0.800927,-1.6235 -0.129881,-0.37882 -0.259761,-0.86587 l -0.238113,-0.87669 -0.12988,-0.4654 z"
           id="path3611"
           d="m 90.729828,396.63899 c -0.793712,-0.20203 -1.313232,-0.82257 -1.558561,-1.86161 -0.08659,-0.36799 -0.147919,-0.81896 -0.183996,-1.35292 -0.0072,-0.17317 -0.01443,-0.39325 -0.02165,-0.66023 l -0.01082,-0.31387 -0.01082,-0.29223 -0.01082,-0.27059 c 0.331916,0.0145 0.613322,0.0505 0.84422,0.10824 0.223682,0.0577 0.483443,0.17679 0.779281,0.35717 0.108233,0.0649 0.234505,0.14791 0.378817,0.24893 l 0.173173,0.11906 0.173174,0.10823 c 0.447364,0.30306 0.855043,0.74321 1.223037,1.32045 0.238113,0.36078 0.515912,0.89474 0.833397,1.60186 0.08659,0.18039 0.169565,0.38603 0.248937,0.61693 -0.822574,0.45458 -1.775028,0.54478 -2.857362,0.27058 z M 89.095504,377.4925 c 0.180389,-0.95245 0.602499,-1.76059 1.266331,-2.42443 0.750418,-0.75041 1.562168,-1.00656 2.435251,-0.76845 1.046256,0.28141 1.70648,1.10759 1.980671,2.47854 0.0938,0.49066 0.147919,1.08595 0.16235,1.78585 0.0072,0.2309 0.0072,0.51592 0,0.85505 l 0,0.40046 c -0.0072,0.15874 -0.01082,0.28502 -0.01082,0.37882 0,0.96688 0.0036,2.3667 0.01082,4.19945 l 0.01082,2.11055 0,2.09973 c 0,0.35357 0.0072,0.85866 0.02165,1.51527 l 0.03247,0.77928 0.01082,0.77928 c 0.01443,1.22665 -0.06855,2.24404 -0.248937,3.05218 -0.144311,-0.3247 -0.29223,-0.63497 -0.443757,-0.93081 -0.562813,-1.06068 -1.360132,-1.93376 -2.391957,-2.61924 -0.909161,-0.6061 -1.919339,-0.94524 -3.030535,-1.0174 l -0.01082,-1.99149 c -0.0072,-0.80814 -0.01804,-1.47558 -0.03247,-2.00232 l 0.151526,-6.38577 c 0,-0.19121 0,-0.38242 0,-0.57364 l -0.01082,-0.58446 c 0.0072,-0.46179 0.03968,-0.84061 0.09741,-1.13645 z m 6.48318,19.47119 c 0.45458,-0.5556 0.764849,-1.23747 0.930807,-2.04561 0.158743,-0.84422 0.234506,-1.89408 0.22729,-3.14959 l -0.01082,-0.80093 -0.01082,-0.7901 c -0.02165,-0.67826 -0.03247,-1.20139 -0.03247,-1.56939 l 0,-2.09973 -0.01082,-2.11055 c -0.0072,-1.8544 -0.0072,-3.25421 0,-4.19945 l 0,-0.85505 -0.01082,-0.85504 c -0.02165,-0.65662 -0.07215,-1.23025 -0.151527,-1.72091 -0.209251,-1.26272 -0.678262,-2.27651 -1.407034,-3.04136 -0.6494,-0.67826 -1.44672,-1.08234 -2.391957,-1.21222 -0.938024,-0.12266 -1.814714,0.0505 -2.630072,0.51952 -0.685478,0.39686 -1.291585,1.03905 -1.818321,1.92656 -0.505089,0.84422 -0.811751,1.67401 -0.919984,2.48937 -0.03608,0.31748 -0.05773,0.70712 -0.06494,1.16892 l 0,0.58446 -0.01082,0.58446 -0.140704,6.38577 0.02165,1.4395 0.01082,1.42869 c 0,1.23386 0.01443,2.19353 0.04329,2.879 l 0.01082,0.3247 0,0.33553 c 0.01443,0.26698 0.02526,0.49787 0.03247,0.69269 0.02886,0.53396 0.07576,1.00297 0.140703,1.40704 0.173173,1.0679 0.526736,1.89769 1.060688,2.48936 1.053471,1.19057 2.655325,1.573 4.805563,1.14728 0.295838,-0.0577 0.580852,-0.14432 0.855043,-0.25976 l 0.248936,0.94163 c 0.101018,0.34635 0.198429,0.65301 0.292231,0.91998 0.245329,0.67827 0.533951,1.26273 0.865867,1.75338 0.144312,0.21647 0.339132,0.34274 0.58446,0.37882 0.216467,0.0361 0.425718,-0.007 0.627754,-0.12988 0.209252,-0.11544 0.342739,-0.27058 0.400463,-0.4654 0.07216,-0.22368 0.03247,-0.44376 -0.119056,-0.66023 -0.310269,-0.45458 -0.577245,-0.99574 -0.800927,-1.6235 -0.08659,-0.25254 -0.173174,-0.54117 -0.259761,-0.86587 l -0.238113,-0.87669 z" />
        <path
           style="fill:#a05a2c"
           inkscape:connector-curvature="0"
           inkscape:original-d="m 109.51915,395.38348 q 0.22729,-0.33552 0.11905,-0.67104 -0.0974,-0.29223 -0.40046,-0.46541 -0.30305,-0.184 -0.63858,-0.12988 -0.35717,0.0541 -0.57363,0.38964 l -0.27059,0.41129 -0.27058,0.41129 q -0.31388,0.45458 -0.60611,0.76845 -0.3247,0.33553 -0.90916,0.41129 -0.21647,0.0325 -0.51952,0.0325 l -0.25976,0 -0.24894,-0.0108 q -1.00657,-0.0216 -1.65597,-0.28141 -0.85504,-0.34635 -1.17974,-1.12563 -0.27058,-0.66022 -0.33552,-1.60185 -0.0325,-0.34635 -0.0325,-0.82258 l 0,-0.41128 0.0108,-0.41129 0,-2.72748 -0.0108,-2.71666 q -0.0108,-2.16467 0.0216,-5.74719 0,-0.25976 0,-0.62776 l -0.0216,-0.66022 q -0.0108,-0.82257 0.0108,-1.33127 0.0649,-1.55856 0.57364,-2.51102 0.45458,-0.85504 1.38538,-1.17974 0.87669,-0.30305 1.81832,-0.0108 0.88752,0.27058 1.62351,1.34209 0.70351,1.01739 0.74681,1.98067 0.0216,0.38964 0.30305,0.62775 0.24894,0.20565 0.60611,0.20565 0.34634,0 0.58446,-0.20565 0.25976,-0.22729 0.23811,-0.62775 -0.0541,-1.30962 -0.74681,-2.47854 -0.66022,-1.13645 -1.72091,-1.86162 -1.09316,-0.73599 -2.3162,-0.8334 -1.32044,-0.0974 -2.50019,0.59529 -1.16892,0.68187 -1.72091,2.04561 -0.43293,1.04986 -0.56281,2.67336 -0.119059,1.53692 -0.108236,3.78817 l 0.02165,1.90491 q 0.02165,1.20139 0.02165,1.89409 l 0.01082,3.42017 0,3.431 q 0,1.40703 0.1407,2.25126 0.21647,1.24468 0.82258,2.07808 1.21221,1.69926 4.47004,1.67761 1.45033,-0.0108 2.31619,-0.66022 0.48705,-0.36799 0.9741,-1.03904 0.17318,-0.22729 0.41129,-0.59528 l 0.37882,-0.59529 z"
           id="path3613"
           d="m 109.51915,395.38348 c 0.15152,-0.22368 0.19121,-0.44736 0.11905,-0.67104 -0.0649,-0.19482 -0.19842,-0.34995 -0.40046,-0.46541 -0.20204,-0.12266 -0.4149,-0.16596 -0.63858,-0.12988 -0.23811,0.0361 -0.42932,0.16595 -0.57363,0.38964 l -0.27059,0.41129 -0.27058,0.41129 c -0.20925,0.30306 -0.41129,0.55921 -0.60611,0.76845 -0.21647,0.22369 -0.51952,0.36079 -0.90916,0.41129 -0.14431,0.0217 -0.31749,0.0325 -0.51952,0.0325 l -0.25976,0 -0.24894,-0.0108 c -0.67105,-0.0144 -1.22304,-0.1082 -1.65597,-0.28141 -0.57003,-0.2309 -0.96327,-0.60611 -1.17974,-1.12563 -0.18039,-0.44014 -0.29223,-0.97409 -0.33552,-1.60185 -0.0217,-0.2309 -0.0325,-0.50509 -0.0325,-0.82258 l 0,-0.41128 0.0108,-0.41129 0,-2.72748 -0.0108,-2.71666 c -0.007,-1.44311 0,-3.35884 0.0216,-5.74719 0,-0.20925 0,-0.4185 0,-0.62776 l -0.0216,-0.66022 c -0.007,-0.54838 -0.004,-0.99213 0.0108,-1.33127 0.0433,-1.03904 0.23448,-1.87604 0.57364,-2.51102 0.30305,-0.57002 0.76485,-0.96327 1.38538,-1.17974 0.58446,-0.20203 1.19057,-0.20563 1.81832,-0.0108 0.59168,0.18039 1.13285,0.62775 1.62351,1.34209 0.46901,0.67826 0.71794,1.33849 0.74681,1.98067 0.0144,0.25976 0.11542,0.46901 0.30305,0.62775 0.16596,0.1371 0.368,0.20565 0.60611,0.20565 0.23089,0 0.42571,-0.0685 0.58446,-0.20565 0.17317,-0.15152 0.25254,-0.36077 0.23811,-0.62775 -0.0361,-0.87308 -0.28501,-1.69926 -0.74681,-2.47854 -0.44015,-0.75763 -1.01378,-1.37817 -1.72091,-1.86162 -0.72877,-0.49066 -1.50084,-0.76846 -2.3162,-0.8334 -0.88029,-0.0649 -1.71369,0.1335 -2.50019,0.59529 -0.77928,0.45458 -1.35292,1.13645 -1.72091,2.04561 -0.28862,0.69991 -0.47622,1.59103 -0.56281,2.67336 -0.07937,1.02462 -0.115452,2.28734 -0.108237,3.78817 l 0.02165,1.90491 c 0.01443,0.80093 0.02165,1.43229 0.02165,1.89409 l 0.01082,3.42017 0,3.431 c 0,0.93802 0.0469,1.68844 0.1407,2.25126 0.14432,0.82979 0.41851,1.52248 0.82258,2.07808 0.80814,1.13284 2.29816,1.69205 4.47004,1.67761 0.96689,-0.007 1.73895,-0.22727 2.31619,-0.66022 0.3247,-0.24532 0.6494,-0.59167 0.9741,-1.03904 0.11546,-0.15152 0.25255,-0.34995 0.41129,-0.59528 l 0.37882,-0.59529 z" />
        <path
           style="fill:#a05a2c"
           inkscape:connector-curvature="0"
           inkscape:original-d="m 114.27059,392.16895 q -0.0541,-1.1148 -0.0541,-2.99806 l -0.0108,-1.49363 -0.0216,-1.49362 0.15152,-6.39659 q 0,-0.20564 0,-0.56281 l -0.0108,-0.58446 q 0.0108,-0.6927 0.0974,-1.14728 0.27058,-1.41786 1.26633,-2.4136 1.12563,-1.13645 2.43525,-0.77928 1.56939,0.42211 1.98067,2.48936 0.14071,0.73599 0.16235,1.78586 0.0108,0.34634 0,0.85504 l 0,0.40046 q -0.0108,0.22729 -0.0108,0.37882 0,1.46115 0.0108,4.19946 l 0.0108,2.09972 0,2.09973 q 0,0.54117 0.0325,1.54774 l 0.0216,0.7901 0.0108,0.79011 q 0.0108,1.88326 -0.27059,3.1063 -0.29223,1.24468 -1.56938,1.72091 -1.12563,0.42211 -2.44608,0.0866 -1.19056,-0.30305 -1.55856,-1.86161 -0.12988,-0.55199 -0.18399,-1.36374 -0.0108,-0.25976 -0.0216,-0.66023 l -0.0108,-0.30305 -0.0108,-0.29223 z m 4.30769,6.15848 q 1.33127,-0.25976 2.17549,-1.17974 0.81175,-0.86587 1.08234,-2.22961 0.23811,-1.25551 0.23811,-3.13877 l -0.0216,-0.80093 -0.0108,-0.80092 q -0.0325,-1.0174 -0.0325,-1.56939 l 0,-2.09973 -0.0108,-2.09972 q -0.0108,-2.79243 0,-4.19946 l 0,-0.85504 -0.0108,-0.86587 q -0.0325,-0.9741 -0.15153,-1.71009 -0.31388,-1.89408 -1.39621,-3.04136 -0.98493,-1.02822 -2.40278,-1.21221 -1.40704,-0.19482 -2.63008,0.51952 -1.01739,0.59528 -1.81832,1.91573 -0.75763,1.26633 -0.90916,2.50019 -0.0649,0.47623 -0.0758,1.16892 l 0,0.58446 0,0.57364 -0.15153,6.39659 0.0217,1.42868 0.0108,1.43951 q 0,1.85079 0.0433,2.86818 l 0.0108,0.33553 0,0.33552 q 0.0216,0.40046 0.0325,0.68187 0.0433,0.81175 0.1407,1.40704 0.25976,1.60185 1.06069,2.50019 1.58021,1.77502 4.80556,1.14727 z"
           id="path3615"
           d="m 114.27059,392.16895 c -0.0361,-0.7432 -0.0541,-1.74255 -0.0541,-2.99806 l -0.0108,-1.49363 -0.0216,-1.49362 0.15152,-6.39659 c 0,-0.1876 0,-0.3752 0,-0.56281 l -0.0108,-0.58446 c 0.007,-0.4618 0.0397,-0.84422 0.0974,-1.14728 0.18038,-0.94524 0.60249,-1.74977 1.26633,-2.4136 0.75042,-0.75763 1.56217,-1.01739 2.43525,-0.77928 1.04626,0.28141 1.70648,1.1112 1.98067,2.48936 0.0938,0.49066 0.14792,1.08595 0.16235,1.78586 0.007,0.2309 0.007,0.51591 0,0.85504 l 0,0.40046 c -0.007,0.15153 -0.0108,0.2778 -0.0108,0.37882 0,0.9741 0.004,2.37392 0.0108,4.19946 l 0.0108,2.09972 0,2.09973 c 0,0.36078 0.0108,0.8767 0.0325,1.54774 l 0.0216,0.7901 0.0108,0.79011 c 0.007,1.25551 -0.083,2.29094 -0.27059,3.1063 -0.19482,0.82979 -0.71795,1.40343 -1.56938,1.72091 -0.75042,0.28141 -1.56578,0.31028 -2.44608,0.0866 -0.79371,-0.20203 -1.31323,-0.82257 -1.55856,-1.86161 -0.0866,-0.36799 -0.14792,-0.82257 -0.18399,-1.36374 -0.007,-0.17317 -0.0144,-0.39325 -0.0216,-0.66023 l -0.0108,-0.30305 -0.0108,-0.29223 z m 4.30769,6.15848 c 0.88751,-0.17317 1.61267,-0.56642 2.17549,-1.17974 0.54116,-0.57724 0.90194,-1.32045 1.08234,-2.22961 0.15874,-0.837 0.23811,-1.88326 0.23811,-3.13877 l -0.0216,-0.80093 -0.0108,-0.80092 c -0.0217,-0.67826 -0.0325,-1.20139 -0.0325,-1.56939 l 0,-2.09973 -0.0108,-2.09972 c -0.007,-1.86162 -0.007,-3.26144 0,-4.19946 l 0,-0.85504 -0.0108,-0.86587 c -0.0217,-0.6494 -0.0722,-1.21943 -0.15153,-1.71009 -0.20926,-1.26272 -0.67466,-2.2765 -1.39621,-3.04136 -0.65662,-0.68548 -1.45755,-1.08955 -2.40278,-1.21221 -0.93803,-0.12988 -1.81472,0.0433 -2.63008,0.51952 -0.67826,0.39686 -1.28437,1.03543 -1.81832,1.91573 -0.50509,0.84422 -0.80814,1.67762 -0.90916,2.50019 -0.0433,0.31749 -0.0685,0.70713 -0.0758,1.16892 l 0,0.58446 0,0.57364 -0.15153,6.39659 0.0217,1.42868 0.0108,1.43951 c 0,1.23386 0.0144,2.18992 0.0433,2.86818 l 0.0108,0.33553 0,0.33552 c 0.0144,0.26698 0.0252,0.49427 0.0325,0.68187 0.0289,0.54117 0.0758,1.01018 0.1407,1.40704 0.17317,1.0679 0.52673,1.9013 1.06069,2.50019 1.05347,1.18335 2.65532,1.56577 4.80556,1.14727 z" />
        <path
           style="fill:#a05a2c"
           inkscape:connector-curvature="0"
           inkscape:original-d="m 132.29145,391.33555 q -0.12988,2.1322 -1.9049,3.51759 -1.60186,1.22304 -3.84229,1.42868 0.0866,-2.41361 0.1407,-5.46579 l 0.0758,-5.46578 q 0.0974,-7.19753 0.22729,-10.93158 0.0108,-0.0758 0,-0.16235 1.86161,-0.12988 3.20371,0.44376 1.63432,0.70352 1.82914,2.2729 0.20564,1.6235 0.27058,3.79899 0.0216,0.79011 0.0325,1.90491 l 0.0217,1.90491 0.0216,1.68844 0.0108,1.68844 q 0,1.91573 -0.0866,3.37688 z m 1.40704,-14.7955 q -0.30306,-2.26208 -2.56513,-3.31194 -1.87244,-0.86587 -4.36181,-0.68188 -0.42211,0.0217 -1.06069,0.12988 -0.51952,0.0866 -0.61693,0.56282 -0.0758,0.45458 0.24894,0.82257 -0.0758,0.15153 -0.0866,0.35717 -0.0866,2.48937 -0.15152,5.60649 l -0.0758,5.60649 q -0.10823,7.45728 -0.23811,11.20216 0,0.15153 0.0325,0.28141 -0.0217,0.36799 0.19482,0.62775 0.22729,0.30305 0.63858,0.31388 2.96559,0.0649 5.29261,-1.49362 2.50019,-1.6668 2.98724,-4.48087 0.0974,-0.56281 0.12988,-1.35291 l 0.0108,-0.68187 0,-0.68187 q 0.0325,-1.88327 0.0108,-4.39428 l -0.0108,-1.04986 -0.0108,-1.06069 q -0.0108,-1.21222 -0.0433,-2.11055 -0.0758,-2.39196 -0.3247,-4.21028 z"
           id="path3617"
           d="m 132.29145,391.33555 c -0.0866,1.42147 -0.72156,2.594 -1.9049,3.51759 -1.06791,0.81536 -2.34867,1.29159 -3.84229,1.42868 0.0577,-1.60907 0.10463,-3.431 0.1407,-5.46579 l 0.0758,-5.46578 c 0.0649,-4.79835 0.14069,-8.44221 0.22729,-10.93158 0.007,-0.0505 0.007,-0.10465 0,-0.16235 1.24107,-0.0866 2.30897,0.0613 3.20371,0.44376 1.08954,0.46902 1.69926,1.22665 1.82914,2.2729 0.13709,1.08234 0.22728,2.34867 0.27058,3.79899 0.0144,0.52674 0.0252,1.16171 0.0325,1.90491 l 0.0217,1.90491 0.0216,1.68844 0.0108,1.68844 c 0,1.27716 -0.0289,2.40278 -0.0866,3.37688 z m 1.40704,-14.7955 c -0.20204,-1.50805 -1.05709,-2.61203 -2.56513,-3.31194 -1.2483,-0.57724 -2.70223,-0.80454 -4.36181,-0.68188 -0.28141,0.0145 -0.63497,0.0578 -1.06069,0.12988 -0.34635,0.0577 -0.55199,0.24534 -0.61693,0.56282 -0.0505,0.30306 0.0324,0.57725 0.24894,0.82257 -0.0505,0.10102 -0.0794,0.22008 -0.0866,0.35717 -0.0577,1.65958 -0.10824,3.52841 -0.15152,5.60649 l -0.0758,5.60649 c -0.0722,4.97152 -0.15153,8.70558 -0.23811,11.20216 0,0.10102 0.0108,0.19483 0.0325,0.28141 -0.0145,0.24533 0.0505,0.45458 0.19482,0.62775 0.15152,0.20204 0.36438,0.30666 0.63858,0.31388 1.97706,0.0433 3.74126,-0.4546 5.29261,-1.49362 1.66679,-1.1112 2.66254,-2.60482 2.98724,-4.48087 0.0649,-0.3752 0.10822,-0.82617 0.12988,-1.35291 l 0.0108,-0.68187 0,-0.68187 c 0.0217,-1.25551 0.0253,-2.72027 0.0108,-4.39428 l -0.0108,-1.04986 -0.0108,-1.06069 c -0.007,-0.80814 -0.0216,-1.51166 -0.0433,-2.11055 -0.0505,-1.59464 -0.15877,-2.99806 -0.3247,-4.21028 z" />
        <path
           style="fill:#a05a2c"
           inkscape:connector-curvature="0"
           inkscape:original-d="m 139.0344,397.42909 q 0,-5.31426 -0.15153,-12.10049 l -0.1407,-6.05025 -0.16235,-6.05024 q -0.0217,-0.40047 -0.29223,-0.62776 -0.24894,-0.21647 -0.60611,-0.21647 -0.35717,0 -0.59528,0.20565 -0.25976,0.23811 -0.24894,0.63858 l 0.16235,6.05024 0.15153,6.05025 q 0.15152,6.78623 0.15152,12.10049 0,0.40047 0.27059,0.63858 0.23811,0.20564 0.59528,0.20564 0.35717,0 0.59528,-0.20564 0.27059,-0.23811 0.27059,-0.63858 z"
           id="path3619"
           d="m 139.0344,397.42909 c 0,-3.54284 -0.0505,-7.57633 -0.15153,-12.10049 l -0.1407,-6.05025 -0.16235,-6.05024 c -0.0145,-0.26698 -0.11188,-0.47623 -0.29223,-0.62776 -0.16596,-0.14431 -0.368,-0.21647 -0.60611,-0.21647 -0.23812,0 -0.43654,0.0686 -0.59528,0.20565 -0.17318,0.15874 -0.25616,0.3716 -0.24894,0.63858 l 0.16235,6.05024 0.15153,6.05025 c 0.10101,4.52416 0.15152,8.55765 0.15152,12.10049 0,0.26698 0.0902,0.47984 0.27059,0.63858 0.15874,0.1371 0.35716,0.20564 0.59528,0.20564 0.23811,0 0.43654,-0.0685 0.59528,-0.20564 0.18039,-0.15874 0.27059,-0.3716 0.27059,-0.63858 z" />
        <path
           style="fill:#a05a2c"
           inkscape:connector-curvature="0"
           inkscape:original-d="m 149.03516,397.66721 q 2.48937,-1.11481 2.72749,-4.18864 0.17317,-2.32701 -0.90917,-5.28179 -0.44375,-1.22303 -1.42868,-2.61924 -0.4654,-0.72517 -1.00657,-1.40704 l -0.4654,-0.59528 -0.7901,-0.90916 q -0.30306,-0.38964 -0.48705,-0.61693 -0.27059,-0.35717 -0.48705,-0.66023 -0.54117,-0.75763 -0.88752,-1.40703 -0.90916,-1.65597 -0.82257,-3.09548 0.0541,-1.10398 0.87669,-1.85079 0.82257,-0.74681 1.89408,-0.69269 0.89834,0.0433 1.4828,0.7901 0.53034,0.6927 0.57364,1.61268 0.0216,0.40046 0.30305,0.62775 0.25976,0.21647 0.60611,0.21647 0.35717,0 0.59528,-0.20564 0.25976,-0.23812 0.23811,-0.63858 -0.0541,-1.02822 -0.51952,-1.92655 -0.45458,-0.87669 -1.22303,-1.45033 -0.77928,-0.58446 -1.71009,-0.73599 -1.00657,-0.15153 -2.01314,0.22729 -1.09316,0.41129 -1.83997,1.38539 -0.69269,0.91998 -0.94163,2.12137 -0.29223,1.47198 0.40046,3.18207 0.46541,1.16892 1.60186,2.82489 0.36799,0.53034 1.23386,1.54774 l 0.4654,0.6061 0.47623,0.59529 q 1.25551,1.69926 1.82914,2.7383 1.35292,2.4569 1.23386,5.5199 -0.0433,1.45033 -1.08233,2.28373 -0.93081,0.74681 -2.44607,0.8334 -1.36375,0.0758 -2.05644,-0.88752 -0.48705,-0.66022 -0.82257,-2.22961 -0.0866,-0.37881 -0.40047,-0.54116 -0.27058,-0.14071 -0.61693,-0.0433 -0.33552,0.0974 -0.53034,0.368 -0.21647,0.29223 -0.12988,0.68187 0.30305,1.36374 0.70352,2.18631 0.54116,1.10398 1.47197,1.69927 0.96328,0.61693 2.44608,0.53034 1.28797,-0.0649 2.45689,-0.59528 z"
           id="path3621"
           d="m 149.03516,397.66721 c 1.65958,-0.7432 2.56874,-2.13942 2.72749,-4.18864 0.11544,-1.55134 -0.18761,-3.31193 -0.90917,-5.28179 -0.29584,-0.81535 -0.77206,-1.68843 -1.42868,-2.61924 -0.31027,-0.48344 -0.64579,-0.95246 -1.00657,-1.40704 l -0.4654,-0.59528 -0.7901,-0.90916 c -0.20204,-0.25976 -0.36439,-0.4654 -0.48705,-0.61693 -0.1804,-0.23811 -0.34275,-0.45819 -0.48705,-0.66023 -0.36078,-0.50508 -0.65662,-0.97409 -0.88752,-1.40703 -0.60611,-1.10398 -0.8803,-2.1358 -0.82257,-3.09548 0.0361,-0.73598 0.32829,-1.35291 0.87669,-1.85079 0.54838,-0.49787 1.17974,-0.72877 1.89408,-0.69269 0.59889,0.0289 1.09316,0.29224 1.4828,0.7901 0.35356,0.4618 0.54477,0.99936 0.57364,1.61268 0.0144,0.26698 0.11541,0.47623 0.30305,0.62775 0.17317,0.14432 0.37521,0.21647 0.60611,0.21647 0.23811,0 0.43654,-0.0685 0.59528,-0.20564 0.17317,-0.15874 0.25254,-0.3716 0.23811,-0.63858 -0.0361,-0.68548 -0.20924,-1.32766 -0.51952,-1.92655 -0.30306,-0.58446 -0.71073,-1.0679 -1.22303,-1.45033 -0.51952,-0.38964 -1.08955,-0.63497 -1.71009,-0.73599 -0.67105,-0.10102 -1.3421,-0.0252 -2.01314,0.22729 -0.72878,0.2742 -1.3421,0.73599 -1.83997,1.38539 -0.4618,0.61332 -0.77567,1.32045 -0.94163,2.12137 -0.19482,0.98132 -0.0613,2.04201 0.40046,3.18207 0.31027,0.77928 0.84422,1.72091 1.60186,2.82489 0.24532,0.35356 0.65661,0.86948 1.23386,1.54774 l 0.4654,0.6061 0.47623,0.59529 c 0.837,1.13284 1.44672,2.04561 1.82914,2.7383 0.90194,1.63794 1.31323,3.4779 1.23386,5.5199 -0.0289,0.96689 -0.38965,1.72813 -1.08233,2.28373 -0.62054,0.49788 -1.4359,0.77568 -2.44607,0.8334 -0.90917,0.0505 -1.59465,-0.2453 -2.05644,-0.88752 -0.3247,-0.44014 -0.59889,-1.18335 -0.82257,-2.22961 -0.0577,-0.25254 -0.19123,-0.43292 -0.40047,-0.54116 -0.18039,-0.0938 -0.38603,-0.10824 -0.61693,-0.0433 -0.22368,0.0649 -0.40046,0.1876 -0.53034,0.368 -0.14432,0.19482 -0.18761,0.42211 -0.12988,0.68187 0.20203,0.90916 0.43654,1.63793 0.70352,2.18631 0.36077,0.73599 0.85143,1.30241 1.47197,1.69927 0.64218,0.41129 1.45754,0.58807 2.44608,0.53034 0.85864,-0.0433 1.67761,-0.24169 2.45689,-0.59528 z" />
      </g>
    </g>
  </g>
</svg>
